<svg width="214" height="49" viewBox="0 0 214 49" fill="none" xmlns="http://www.w3.org/2000/svg">
<rect opacity="0.32" x="2" y="2" width="210" height="45" rx="22.5" fill="#0F3A0D" stroke="#48DA43" stroke-width="4"/>
<path d="M47.3697 32.0066L45.5231 32.0014L50.9055 17.4712L52.7237 17.4764L58.0231 32.037L56.1765 32.0318L51.8649 19.7751L51.7512 19.7748L47.3697 32.0066ZM48.0677 26.3268L55.5109 26.348L55.5064 27.9105L48.0633 27.8893L48.0677 26.3268ZM64.4926 32.2828C63.4699 32.2799 62.5899 32.0359 61.8526 31.5508C61.1154 31.0657 60.5491 30.3989 60.1538 29.5502C59.7585 28.7015 59.5624 27.7327 59.5655 26.6437C59.5686 25.5357 59.775 24.5586 60.1846 23.7122C60.599 22.8611 61.1738 22.1975 61.9091 21.7214C62.6491 21.2405 63.5115 21.0015 64.4963 21.0043C65.2634 21.0065 65.9543 21.1505 66.569 21.4364C67.1837 21.7222 67.6868 22.1214 68.0784 22.6339C68.4699 23.1464 68.712 23.7436 68.8048 24.4257L67.1287 24.4209C67.0022 23.9234 66.7194 23.4823 66.2802 23.0975C65.8457 22.708 65.2591 22.5122 64.5205 22.5101C63.8671 22.5082 63.2937 22.677 62.8003 23.0165C62.3116 23.3513 61.9291 23.8261 61.6527 24.4408C61.3811 25.0509 61.2441 25.7678 61.2418 26.5917C61.2394 27.4345 61.3698 28.1687 61.6332 28.7945C61.9013 29.4203 62.2787 29.9067 62.7654 30.2537C63.2568 30.6007 63.834 30.7752 64.4969 30.7771C64.9325 30.7783 65.3281 30.7037 65.6836 30.5532C66.0391 30.4027 66.3404 30.1858 66.5875 29.9024C66.8345 29.619 67.0106 29.2786 67.1159 28.8812L68.7921 28.8859C68.6955 29.5296 68.4595 30.1089 68.084 30.624C67.7132 31.1343 67.222 31.5401 66.6103 31.8414C66.0034 32.1379 65.2975 32.2851 64.4926 32.2828ZM76.0087 21.1792L76.0046 22.5997L70.3512 22.5835L70.3553 21.1631L76.0087 21.1792ZM72.0105 18.5542L73.6866 18.5589L73.6569 28.9566C73.6556 29.4301 73.7232 29.7854 73.8599 30.0226C74.0012 30.255 74.1807 30.4117 74.3983 30.4928C74.6206 30.5692 74.8549 30.6078 75.1011 30.6085C75.2858 30.609 75.4373 30.6 75.5557 30.5814C75.6742 30.558 75.7689 30.5394 75.84 30.5254L76.1766 32.032C76.0628 32.0743 75.9041 32.1165 75.7004 32.1585C75.4966 32.2053 75.2385 32.2282 74.926 32.2273C74.4525 32.226 73.9888 32.1228 73.5349 31.9179C73.0856 31.7131 72.7125 31.4019 72.4154 30.9843C72.123 30.5668 71.9777 30.0409 71.9795 29.4064L72.0105 18.5542ZM78.4989 32.0955L78.53 21.1864L80.2061 21.1912L80.175 32.1002L78.4989 32.0955ZM79.3874 19.3707C79.0607 19.3697 78.7793 19.2577 78.5432 19.0344C78.3118 18.8112 78.1966 18.5434 78.1975 18.2309C78.1984 17.9184 78.3152 17.6512 78.5478 17.4293C78.7852 17.2075 79.0672 17.097 79.3939 17.0979C79.7206 17.0989 79.9997 17.2109 80.231 17.4341C80.4671 17.6574 80.5847 17.9252 80.5839 18.2377C80.583 18.5502 80.4638 18.8174 80.2265 19.0393C79.9938 19.2611 79.7141 19.3716 79.3874 19.3707ZM92.1965 21.2254L88.1313 32.1229L86.4267 32.1181L82.4238 21.1975L84.242 21.2027L87.2285 29.9044L87.3421 29.9048L90.3783 21.2202L92.1965 21.2254ZM98.5603 32.38C97.5091 32.377 96.6031 32.1424 95.8421 31.6762C95.0859 31.2053 94.503 30.5502 94.0934 29.711C93.6886 28.867 93.4878 27.8863 93.491 26.7689C93.4942 25.6515 93.7006 24.6672 94.1103 23.8161C94.5246 22.9603 95.0994 22.2943 95.8347 21.8182C96.5747 21.3373 97.4371 21.0983 98.422 21.1011C98.9902 21.1027 99.551 21.199 100.104 21.39C100.658 21.581 101.161 21.8902 101.615 22.3176C102.068 22.7403 102.429 23.3 102.696 23.9968C102.964 24.6936 103.097 25.551 103.094 26.569L103.092 27.2792L94.6828 27.2552L94.687 25.8064L101.391 25.8255C101.393 25.21 101.272 24.6604 101.027 24.1767C100.787 23.6931 100.442 23.311 99.9932 23.0303C99.5489 22.7497 99.0238 22.6085 98.4177 22.6068C97.7501 22.6049 97.172 22.769 96.6833 23.099C96.1994 23.4243 95.8265 23.8494 95.5646 24.3742C95.3027 24.899 95.1709 25.4621 95.1692 26.0634L95.1664 27.0293C95.1641 27.8532 95.3041 28.552 95.5866 29.1257C95.8738 29.6947 96.2726 30.1291 96.7832 30.4289C97.2937 30.7239 97.8875 30.8724 98.5646 30.8743C99.0049 30.8755 99.4028 30.8151 99.7583 30.693C100.118 30.5662 100.429 30.3777 100.69 30.1275C100.951 29.8726 101.154 29.5559 101.297 29.1775L102.915 29.6367C102.743 30.1854 102.455 30.6676 102.051 31.0831C101.648 31.4939 101.149 31.8144 100.557 32.0447C99.9645 32.2703 99.2989 32.3821 98.5603 32.38Z" fill="white"/>
<rect x="17" y="16" width="18" height="18" rx="9" fill="#255423"/>
</svg>
